<?xml version="1.0" encoding="UTF-8" standalone="no"?>
<!-- Created with Inkscape (http://www.inkscape.org/) -->

<svg
   xmlns:dc="http://purl.org/dc/elements/1.1/"
   xmlns:cc="http://creativecommons.org/ns#"
   xmlns:rdf="http://www.w3.org/1999/02/22-rdf-syntax-ns#"
   xmlns:svg="http://www.w3.org/2000/svg"
   xmlns="http://www.w3.org/2000/svg"
   version="1.1"
   width="128"
   height="128"
   id="svg3036">
  <metadata
     id="metadata3042">
    <rdf:RDF>
      <cc:Work
         rdf:about="">
        <dc:format>image/svg+xml</dc:format>
        <dc:type
           rdf:resource="http://purl.org/dc/dcmitype/StillImage" />
        <dc:title></dc:title>
      </cc:Work>
    </rdf:RDF>
  </metadata>
  <defs
     id="defs3040" />
  <g
     transform="matrix(0.3235576,0,0,0.30382301,-17.374076,-12.06241)"
     id="g3048">
    <path
       d="M 243.47251,459.64634 C 241.6741,458.41216 179.52285,423.19372 113,385.71319 98.425,377.50129 85.934415,370.24975 85.243144,369.59866 84.465479,368.8662 82.473512,355.84946 80.018469,335.45743 77.836168,317.33084 70.852199,259.33455 64.498538,206.57679 58.144876,153.81902 53.29598,110.30568 53.723213,109.88047 54.593101,109.01472 57.823222,107.85995 147.5,76.35542 182.7,63.989236 220.47434,50.683341 231.44298,46.786766 l 19.94297,-7.084683 7.55703,2.538926 C 263.09934,43.637418 302.5,57.249756 346.5,72.490647 c 44,15.240892 84.725,29.295973 90.5,31.233523 5.775,1.93755 11.11113,4.09445 11.85807,4.79311 1.14039,1.06667 0.2972,10.06334 -5.26029,56.12651 -3.6401,30.17091 -10.61394,88.09034 -15.49742,128.70984 -6.19903,51.5619 -9.28974,74.22531 -10.2397,75.08502 -0.74837,0.67726 -16.43566,9.36362 -34.86066,19.30301 -18.425,9.9394 -56.3913,30.48864 -84.36955,45.66499 C 270.65219,448.58299 247.23982,461 246.60295,461 c -0.63686,0 -2.04557,-0.60915 -3.13044,-1.35366 z M 162.5,346.12579 l 7,-0.62579 12.06257,-30 12.06257,-30 26.17254,-0.26657 c 26.15133,-0.26636 26.17298,-0.26839 26.7245,-2.5 0.30357,-1.22839 0.42277,-8.75843 0.26489,-16.73343 L 246.5,251.5 229.35321,251.22683 c -12.0368,-0.19176 -17.44863,-0.63878 -18.15966,-1.5 -0.71043,-0.86048 -0.0363,-3.61574 2.25752,-9.22683 8.16461,-19.9721 29.8675,-71.20413 31.61217,-74.62395 1.81887,-3.5653 1.93676,-6.19951 1.93676,-43.27719 0,-21.71446 -0.3842,-39.718273 -0.85377,-40.008486 -0.46958,-0.290213 -1.41972,0.695729 -2.11143,2.190983 C 243.34308,86.276611 235.00613,104.825 225.50824,126 202.88549,176.4361 172.71859,243.53722 147.38993,299.76081 136.17547,324.65425 127,345.46675 127,346.01081 c 0,1.08739 23.76183,1.16435 35.5,0.11498 z"
       id="path3062"
       style="fill:#b1afaf" />
    <path
       d="M 214,422.35083 C 196.675,412.70063 163.825,394.47048 141,381.83939 118.175,369.2083 98.956078,358.33968 98.291284,357.68689 97.580863,356.9893 95.637468,344.13246 93.577182,326.5 c -4.602038,-39.38543 -12.6441,-109.1989 -17.048647,-148 -1.935449,-17.05 -3.971144,-34.55905 -4.523766,-38.909 -1.494913,-11.76716 -1.319403,-15.35225 0.8073,-16.49042 0.996637,-0.53339 40.484141,-14.78677 87.750001,-31.674181 L 246.5,60.722009 l 18,6.086404 c 72.91102,24.653659 162.09571,55.387297 162.81582,56.107407 1.28815,1.28815 -27.84315,232.04885 -29.49727,233.65973 -0.7252,0.70625 -13.91855,8.22023 -29.31855,16.69773 -15.4,8.47749 -47.125,25.99546 -70.5,38.92882 -45.08488,24.9454 -50.45748,27.82818 -51.71016,27.74622 C 245.85543,439.9199 231.325,432.00102 214,422.35083 z m -59.19899,-75.00523 15.119,-0.6544 11.61597,-29.0956 c 6.38878,-16.00258 12.14428,-29.61032 12.78999,-30.23942 0.83308,-0.81164 16.89067,-1.34871 55.29182,-1.84933 44.81329,-0.5842 54.33276,-0.47351 55.36813,0.64383 0.68769,0.74212 6.95693,14.62432 13.93166,30.84932 l 12.68133,29.5 5.95055,0.64147 C 345.16851,347.9628 373,348.18368 373,347.42282 c 0,-0.31746 -6.80669,-15.05496 -15.12599,-32.75 C 340.52796,277.77793 318.59877,230.93827 277.03281,142 260.9674,107.625 247.6303,79.305 247.39482,79.066667 c -1.05981,-1.072634 -3.67283,4.314002 -23.28947,48.010263 -23.46461,52.26766 -61.64444,137.22985 -83.51715,185.8521 -8.02351,17.83596 -14.5882,33.02346 -14.5882,33.75 0,1.53999 5.61788,1.67001 28.80101,0.66657 z m 76.04765,-97.09386 c -13.60877,-0.21535 -18.77307,-0.62723 -19.10158,-1.52344 -0.24763,-0.67557 6.58847,-17.93279 15.19133,-38.34938 20.01186,-47.49279 19.09585,-45.51897 20.95803,-45.16035 0.95655,0.18422 9.1957,16.27594 21.38387,41.76446 18.20482,38.07082 19.68491,41.56923 18.08259,42.74088 -1.76799,1.29279 -5.79609,1.33041 -56.51424,0.52783 z"
       id="path3060"
       style="fill:#c77c82" />
    <path
       d="M 245.32353,437.93737 C 241.49907,436.49908 101.56941,358.77631 99.796271,357.10545 98.380503,355.77135 95.862252,336.16401 84.897008,241.09841 76.271548,166.31808 72.02316,126.18684 72.630301,125.22432 73.512483,123.82577 86.655703,119.02378 199.30509,78.942556 l 47.8051,-17.009293 32.1949,10.917155 c 99.61205,33.778022 145.33801,49.581562 146.48668,50.627882 1.04963,0.95611 -1.33716,22.15644 -12.733,113.09919 -7.71362,61.55738 -14.29532,113.60024 -14.626,115.65079 -0.59434,3.68559 -0.84356,3.86204 -21.767,15.41141 -11.64117,6.42573 -43.78481,24.2047 -71.43031,39.50882 -60.97468,33.75464 -57.19316,31.81132 -59.91193,30.78886 z m -75.6693,-90.45164 c 0.63482,-0.1922 6.18128,-13.09262 12.32545,-28.66759 6.14417,-15.57498 11.81114,-29.3131 12.59328,-30.52916 l 1.42206,-2.21101 53.90751,-0.006 c 41.17796,-0.005 54.12527,0.28147 54.82968,1.21102 0.50718,0.66929 6.41652,14.0422 13.13185,29.71756 6.71534,15.67537 12.58435,29.10684 13.04224,29.84773 1.12892,1.82664 41.41992,3.05082 42.50723,1.29152 0.39129,-0.63312 -7.3666,-18.3611 -17.23974,-39.39552 C 326.17894,244.84136 280.12955,146.45118 263.62382,111 255.04532,92.575 247.46608,77.5 246.78106,77.5 c -0.68501,0 -10.94346,21.6 -22.79655,48 -31.99645,71.26462 -48.57394,108.14627 -75.19047,167.28402 -13.19005,29.30621 -23.73777,53.92023 -23.43939,54.69781 0.453,1.18048 4.05775,1.32629 21.84394,0.88358 11.71577,-0.29162 21.82081,-0.68747 22.45564,-0.87968 z M 231,249.03424 C 215.27619,248.58017 212.54465,248.2749 212.79755,247 c 0.38819,-1.95689 29.86384,-72.3594 32.34251,-77.25 1.04532,-2.0625 2.26501,-3.75 2.71041,-3.75 1.41802,0 39.44723,80.78181 38.81044,82.44128 -0.64367,1.67737 -13.40207,1.81329 -55.66091,0.59296 z"
       id="path3058"
       style="fill:#d95a65" />
    <path
       d="M 247,438.02032 C 247,437.45915 246.48302,437 245.85116,437 244.5747,437 102.22717,358.37096 100.26171,356.58021 98.99068,355.42216 72.628744,131.8379 73.208329,127.13159 73.434204,125.29746 74.627912,124.3521 78.5,122.94084 106.37191,112.78238 244.00718,64 244.79651,64 c 0.57025,0 1.20525,-0.505293 1.41111,-1.122872 0.23631,-0.708907 12.34087,2.934919 32.83334,9.883786 99.86171,33.862486 145.60109,49.670106 146.75081,50.717386 1.04963,0.95611 -1.33716,22.15644 -12.733,113.09919 -7.71362,61.55738 -14.29532,113.60024 -14.626,115.65079 -0.59434,3.68559 -0.84356,3.86204 -21.767,15.41141 -11.64117,6.42573 -43.78481,24.2047 -71.43031,39.50882 C 247.36472,439.18486 247,439.37821 247,438.02032 z m -75.75829,-91.03857 c 0.52563,-0.83504 6.19878,-14.56004 12.60699,-30.5 L 195.5,287.5 l 26,-0.3993 c 83.43113,-1.28133 82.10705,-1.2826 83.14737,0.0802 0.55385,0.72552 6.50136,14.14442 13.21669,29.81978 6.71534,15.67537 12.58435,29.10684 13.04224,29.84773 1.12711,1.8237 41.41974,3.05111 42.5052,1.29481 0.39017,-0.63131 -8.94743,-21.7343 -20.75023,-46.89552 C 307.1943,204.32111 276.77004,139.25947 262.42223,108.27336 254.215,90.548707 246.99528,76.036207 246.3784,76.023359 245.76151,76.010512 243.10615,80.8375 240.47759,86.75 c -2.62857,5.9125 -13.99185,31.225 -25.25175,56.25 -11.2599,25.025 -29.36233,65.3 -40.22763,89.5 -10.8653,24.2 -26.78479,59.61871 -35.37665,78.70824 C 131.0297,330.29778 124,346.57728 124,347.38492 c 0,2.10408 0.9859,2.16833 24.78115,1.61508 17.76483,-0.41304 21.67107,-0.76405 22.46056,-2.01825 z M 248.58649,249.25 c -0.41077,-0.4125 -8.56545,-0.975 -18.12153,-1.25 l -17.37467,-0.5 16.04937,-38 c 8.82716,-20.9 16.5555,-39.2375 17.1741,-40.75 0.61859,-1.5125 1.39962,-2.75 1.73562,-2.75 1.28604,0 39.19069,80.93201 38.61153,82.44128 -0.51165,1.33333 -3.25368,1.55872 -18.96286,1.55872 -10.10059,0 -18.7008,-0.3375 -19.11156,-0.75 z"
       id="path3056"
       style="fill:#b45b62" />
    <path
       d="M 172.63003,397.05555 C 133.10155,375.11304 100.36848,356.76848 99.889875,356.28988 98.901413,355.30141 72.759398,130.77697 73.208329,127.13159 c 0.225852,-1.83395 1.419973,-2.77987 5.291671,-4.19181 15.392966,-5.61355 163.43478,-58.303492 165.67805,-58.966904 2.75485,-0.814706 15.1509,3.2222 115.32195,37.555824 20.35,6.97497 43.075,14.72102 50.5,17.21346 7.425,2.49244 14.08251,4.99179 14.79446,5.55411 0.75558,0.59679 1.07432,2.10088 0.76566,3.61307 -0.29084,1.42486 -6.84693,52.97924 -14.56909,114.56529 -7.72216,61.58604 -14.3667,112.28002 -14.76566,112.65329 -0.39895,0.37326 -10.85037,6.27939 -23.22537,13.12472 -12.375,6.84533 -43.65,24.15457 -69.5,38.46498 -53.48852,29.61092 -54.77478,30.29121 -57.21016,30.2579 -0.98441,-0.0135 -34.13132,-17.97745 -73.65981,-39.91997 z m -1.38832,-50.0738 c 0.52563,-0.83504 6.19878,-14.56004 12.60699,-30.5 L 195.5,287.5 l 53.8304,-0.006 c 34.89964,-0.004 54.10973,0.34805 54.62466,1 0.43684,0.55307 6.27425,13.83058 12.97202,29.50558 6.69777,15.675 13.10403,29.2875 14.23613,30.25 1.81738,1.54513 4.50389,1.75 22.94757,1.75 20.32687,0 20.88922,-0.0547 20.88922,-2.03042 0,-1.11673 -10.08262,-23.50423 -22.40582,-49.75 C 319.86565,228.51485 299.93356,185.93949 272.78711,127.75 254.8419,89.283736 248.20996,76 246.95079,76 c -1.19056,0 -3.11432,3.194781 -6.4732,10.75 -2.62857,5.9125 -13.99185,31.225 -25.25175,56.25 -11.2599,25.025 -29.36233,65.3 -40.22763,89.5 -10.8653,24.2 -26.78479,59.61871 -35.37665,78.70824 C 131.0297,330.29778 124,346.57728 124,347.38492 c 0,2.10408 0.9859,2.16833 24.78115,1.61508 17.76483,-0.41304 21.67107,-0.76405 22.46056,-2.01825 z M 214.92582,243.25 c 4.43708,-11.11238 29.16206,-69.51925 30.63431,-72.36628 0.94469,-1.82682 1.97909,-2.7445 2.50301,-2.22058 C 248.94941,169.54941 286,246.54583 286,247.50136 286,247.77561 269.58157,248 249.51459,248 l -36.48541,0 1.89664,-4.75 z"
       id="path3054"
       style="fill:#e03745" />
    <path
       d="M 246,436.26204 C 245.175,435.943 222.9,423.67755 196.5,409.00549 170.1,394.33343 138.44092,376.7769 126.14648,369.99097 113.85204,363.20505 102.9365,356.94352 101.88972,356.07647 99.9222,354.44675 99.677054,352.69059 91.967991,285 90.87183,275.375 89.531801,263.9 88.990147,259.5 88.448493,255.1 85.974286,233.725 83.49191,212 c -2.482376,-21.725 -5.633573,-48.99826 -7.00266,-60.60723 -3.131554,-26.55356 -3.133181,-26.01434 0.08094,-26.82103 1.413606,-0.35479 35.95111,-12.58594 76.75,-27.18033 40.7989,-14.594388 78.95405,-28.12942 84.78923,-30.077847 l 10.60942,-3.542595 36.89058,12.542889 C 305.89924,83.212446 339.15,94.561331 359.5,101.5336 c 20.35,6.97227 43.075,14.71612 50.5,17.20856 7.425,2.49244 14.08251,4.99179 14.79446,5.55411 0.75558,0.59679 1.07432,2.10088 0.76566,3.61307 -0.29084,1.42486 -6.84693,52.97924 -14.56909,114.56529 -7.72216,61.58604 -14.3667,112.28002 -14.76566,112.65329 -0.39895,0.37326 -10.85037,6.27939 -23.22537,13.12472 -12.375,6.84533 -43.65,24.15457 -69.5,38.46498 -45.10849,24.97179 -55.07657,30.37601 -55.71016,30.20343 -0.15941,-0.0434 -0.96484,-0.33998 -1.78984,-0.65901 z m -76.29949,-86.87938 c 1.82057,-0.48816 4.27701,-5.7951 14.22706,-30.73635 L 195.95413,288.5 l 26.27293,-0.16103 c 14.45012,-0.0886 38.44758,-0.46554 53.3277,-0.83771 22.00861,-0.55047 27.25432,-0.42718 28.12466,0.66103 0.58844,0.73574 6.54989,14.16271 13.24766,29.83771 6.69777,15.675 13.10403,29.2875 14.23613,30.25 1.81738,1.54513 4.50389,1.75 22.94757,1.75 C 374.47582,350 375,349.9488 375,347.95822 c 0,-1.12298 -8.61201,-20.36048 -19.1378,-42.75 C 333.30145,257.21902 309.30968,205.95873 274.3261,131 260.33662,101.025 248.22401,75.825 247.40918,75 c -1.93052,-1.954617 -1.39122,-2.900651 -12.54154,22 -5.04886,11.275 -15.45672,34.45 -23.12858,51.5 -7.67186,17.05 -22.84192,50.8 -33.71126,75 -10.86933,24.2 -27.69713,61.58312 -37.39511,83.0736 C 130.93471,328.06408 123,346.62658 123,347.8236 c 0,2.1704 0.0614,2.17636 22.25,2.16275 12.2375,-0.008 23.24023,-0.27917 24.45051,-0.60369 z M 231.25,247.25179 c -8.9375,-0.16573 -16.25,-0.676 -16.25,-1.13392 0,-0.95833 26.89586,-65.24123 30.26235,-72.32902 1.23071,-2.59113 2.50774,-4.72863 2.83786,-4.75 0.48246,-0.0312 35.69239,72.65113 37.58857,77.5925 0.54163,1.41146 -7.09097,1.49845 -54.43878,0.62044 z"
       id="path3052"
       style="fill:#e22838" />
    <path
       d="m 247,362.64406 0,-74.35594 27.62983,-0.72852 c 22.46217,-0.59226 27.86556,-0.47893 28.89024,0.60594 0.69323,0.73395 6.7334,14.15946 13.4226,29.83446 6.68919,15.675 13.08844,29.2875 14.22054,30.25 1.81738,1.54513 4.50389,1.75 22.94757,1.75 C 374.47582,350 375,349.9488 375,347.95822 c 0,-1.12298 -8.61201,-20.36048 -19.1378,-42.75 C 332.35712,255.21032 307.53868,202.17659 274.80515,132 261.08,102.575 249.20901,77.503332 248.42517,76.285183 246.61132,73.466328 246.4863,64 248.26293,64 c 0.69461,0 24.43211,7.911138 52.75,17.580307 86.7379,29.616733 95.03355,32.444083 108.98707,37.145213 7.425,2.50159 14.08251,5.00843 14.79446,5.57075 0.75558,0.59679 1.07432,2.10088 0.76566,3.61307 -0.29084,1.42486 -6.84693,52.97924 -14.56909,114.56529 -7.72216,61.58604 -14.3667,112.28002 -14.76566,112.65329 -0.39895,0.37326 -10.85037,6.27939 -23.22537,13.12472 -12.375,6.84533 -43.65,24.15457 -69.5,38.46498 C 257.18995,432.35458 248.60548,437 247.53984,437 247.24293,437 247,403.53983 247,362.64406 z M 247,208.5 c 0,-21.725 0.38259,-39.5 0.85021,-39.5 0.6549,0 35.41461,71.31462 37.83857,77.63135 C 286.12222,247.76087 282.78828,248 266.60699,248 L 247,248 l 0,-39.5 z"
       id="path3050"
       style="fill:#b62732" />
  </g>
</svg>
